# xmcd
# 
# Track frame offsets:
#     150
#     25191
#     53879
#     75565
# 
# Disc length: 1260
# 
# Revision: 0
# Processed by: cddbd v1.5.2PL0 Copyright (c) Steve Scherf et al.
# Submitted via: fre:ac v1.0.17
# 
DISCID=2504ea04
DTITLE=Anaida - Quest
DYEAR=2001
DGENRE=World
TTITLE0=Quest (Radio Edit)
TTITLE1=Quest (soundtrack from Bombay Boys) 
TTITLE2=Good Day to Die
TTITLE3=Faith is Love
EXTD=
EXTT0=
EXTT1=
EXTT2=
EXTT3=
PLAYORDER=
